<svg width="97" height="66" viewBox="0 0 97 66" fill="none" xmlns="http://www.w3.org/2000/svg">
<path d="M48.2407 46.0001L50.9341 48.2351L50.9341 48.2351L48.2407 46.0001ZM7.24058 53.5L10.078 51.4508L9.96167 51.2898L9.82791 51.143L7.24058 53.5ZM5.74067 34.5001L2.62046 32.9144L2.61528 32.9246L2.61016 32.9348L5.74067 34.5001ZM24.3608 5.58567C25.2365 3.86243 24.5495 1.75554 22.8263 0.879798C21.103 0.00405835 18.9961 0.691093 18.1204 2.41433L24.3608 5.58567ZM48.7406 7.5C52.7369 7.5 57.2219 9.69482 58.5042 14.3218C59.8559 19.1991 58.2368 28.4725 45.5472 43.765L50.9341 48.2351C63.9416 32.5595 67.5725 20.8329 65.2499 12.4522C62.8579 3.82117 54.7443 0.5 48.7406 0.5V7.5ZM45.5472 43.765C36.133 55.1103 28.3884 58.3881 22.8344 58.4377C17.2959 58.4871 12.8811 55.3321 10.078 51.4508L4.40321 55.5492C8.10008 60.668 14.4353 65.5129 22.8969 65.4374C31.3429 65.362 40.8483 60.3897 50.9341 48.2351L45.5472 43.765ZM9.82791 51.143C8.36843 49.5409 7.56128 46.8287 7.5033 43.6191C7.44578 40.435 8.14252 37.5226 8.87117 36.0653L2.61016 32.9348C1.2625 35.6302 0.431684 39.7178 0.504445 43.7455C0.576745 47.7477 1.55771 52.4591 4.65326 55.8571L9.82791 51.143ZM8.86087 36.0857L24.3608 5.58567L18.1204 2.41433L2.62046 32.9144L8.86087 36.0857Z" fill="#460479"/>
<path d="M49.0567 46.0001L46.3633 48.2351L46.3633 48.2351L49.0567 46.0001ZM90.0568 53.5L87.2194 51.4508L87.3357 51.2898L87.4695 51.143L90.0568 53.5ZM91.5567 34.5001L94.6638 32.8888L94.6757 32.9117L94.6872 32.9348L91.5567 34.5001ZM72.6335 5.61121C71.7437 3.89522 72.4134 1.78276 74.1294 0.892913C75.8454 0.00306413 77.9578 0.67279 78.8477 2.38879L72.6335 5.61121ZM48.7406 7.5C44.7374 7.5 40.1972 9.70325 38.8791 14.3434C37.4958 19.2129 39.0635 28.476 51.7502 43.765L46.3633 48.2351C33.3529 32.556 29.7625 20.8192 32.1455 12.4306C34.5935 3.81274 42.7438 0.5 48.7406 0.5V7.5ZM51.7502 43.765C61.1644 55.1103 68.909 58.3881 74.463 58.4377C80.0015 58.4871 84.4163 55.3321 87.2194 51.4508L92.8942 55.5492C89.1973 60.668 82.8621 65.5129 74.4005 65.4374C65.9545 65.362 56.4491 60.3897 46.3633 48.2351L51.7502 43.765ZM87.4695 51.143C88.929 49.5409 89.7361 46.8287 89.7941 43.6191C89.8516 40.435 89.1549 37.5226 88.4262 36.0653L94.6872 32.9348C96.0349 35.6302 96.8657 39.7178 96.7929 43.7455C96.7206 47.7477 95.7397 52.4591 92.6441 55.8571L87.4695 51.143ZM88.4496 36.1113L72.6335 5.61121L78.8477 2.38879L94.6638 32.8888L88.4496 36.1113Z" fill="#460479"/>
</svg>
