<svg width="296" height="66" viewBox="0 0 296 66" fill="none" xmlns="http://www.w3.org/2000/svg">
<path d="M155.25 37.9375L147.469 56H141.688L128.625 24.9688H137.031L144.562 43.0625L152.375 24.9688H158.156L165.875 43.0625L173.5 24.9688H181.875L168.844 56H163.062L155.25 37.9375ZM182.035 48.625C180.618 46.1667 179.91 43.4583 179.91 40.5C179.91 37.5417 180.618 34.8333 182.035 32.375C183.472 29.8958 185.452 27.9375 187.972 26.5C190.514 25.0417 193.327 24.3125 196.41 24.3125C199.493 24.3125 202.295 25.0417 204.816 26.5C207.358 27.9375 209.337 29.8958 210.754 32.375C212.191 34.8333 212.91 37.5417 212.91 40.5C212.91 43.4583 212.191 46.1667 210.754 48.625C209.337 51.0833 207.358 53.0312 204.816 54.4688C202.295 55.9062 199.493 56.625 196.41 56.625C193.327 56.625 190.514 55.9062 187.972 54.4688C185.452 53.0312 183.472 51.0833 182.035 48.625ZM190.504 34.4688C188.983 36.0938 188.222 38.1042 188.222 40.5C188.222 42.8958 188.983 44.9062 190.504 46.5312C192.045 48.1562 194.014 48.9688 196.41 48.9688C198.806 48.9688 200.764 48.1562 202.285 46.5312C203.827 44.9062 204.597 42.8958 204.597 40.5C204.597 38.1042 203.827 36.0938 202.285 34.4688C200.764 32.8229 198.806 32 196.41 32C194.014 32 192.045 32.8229 190.504 34.4688ZM237.57 48.9688L238.851 56C237.643 56.4167 235.914 56.625 233.664 56.625C228.747 56.625 225.164 55.1354 222.914 52.1562C221.372 50.0938 220.601 47 220.601 42.875V32H211.976V24.9688H220.601V16.3125H228.945V24.9688H239.164V32H228.945V43.8438C228.945 45.6562 229.278 46.9583 229.945 47.75C230.841 48.7708 232.257 49.2812 234.195 49.2812C235.507 49.2812 236.632 49.1771 237.57 48.9688ZM264.043 46.3438L268.761 51.0625C267.282 52.8333 265.407 54.2083 263.136 55.1875C260.865 56.1458 258.501 56.625 256.043 56.625C251.334 56.625 247.449 55.1354 244.386 52.1562C241.324 49.1771 239.793 45.2917 239.793 40.5C239.793 38.3542 240.147 36.3021 240.855 34.3438C241.584 32.3854 242.584 30.6667 243.855 29.1875C245.147 27.6875 246.74 26.5 248.636 25.625C250.553 24.75 252.636 24.3125 254.886 24.3125C257.678 24.3125 260.199 25.0417 262.449 26.5C264.699 27.9375 266.438 29.8646 267.668 32.2812C268.918 34.6979 269.543 37.3333 269.543 40.1875C269.543 41.0625 269.48 41.8542 269.355 42.5625H247.855C248.063 44.7292 248.959 46.5 250.543 47.875C252.126 49.2292 254.022 49.9062 256.23 49.9062C257.834 49.9062 259.313 49.5521 260.668 48.8438C262.043 48.1354 263.168 47.3021 264.043 46.3438ZM248.23 36.4688H261.043C260.918 35.0312 260.272 33.7708 259.105 32.6875C257.938 31.5833 256.532 31.0312 254.886 31.0312C253.199 31.0312 251.709 31.5729 250.418 32.6562C249.147 33.7396 248.418 35.0104 248.23 36.4688ZM292.577 24.5625L291.64 32.3125C291.015 32.1042 290.015 32 288.64 32C286.973 32 285.452 32.4688 284.077 33.4062C282.702 34.3438 281.702 35.3646 281.077 36.4688V56H272.765V24.9688H280.765V28.0938C281.702 26.9271 282.963 26.0104 284.546 25.3438C286.15 24.6562 287.89 24.3125 289.765 24.3125C290.432 24.3125 291.369 24.3958 292.577 24.5625Z" fill="#460479"/>
<path d="M48.2407 46.0001L50.9341 48.2351L50.9341 48.2351L48.2407 46.0001ZM7.24058 53.5L10.078 51.4508L9.96167 51.2898L9.82791 51.143L7.24058 53.5ZM5.74067 34.5001L2.62046 32.9144L2.61528 32.9246L2.61016 32.9348L5.74067 34.5001ZM24.3608 5.58567C25.2365 3.86243 24.5495 1.75554 22.8263 0.879798C21.103 0.00405835 18.9961 0.691093 18.1204 2.41433L24.3608 5.58567ZM48.7406 7.5C52.7369 7.5 57.2219 9.69482 58.5042 14.3218C59.8559 19.1991 58.2368 28.4725 45.5472 43.765L50.9341 48.2351C63.9416 32.5595 67.5725 20.8329 65.2499 12.4522C62.8579 3.82117 54.7443 0.5 48.7406 0.5V7.5ZM45.5472 43.765C36.133 55.1103 28.3884 58.3881 22.8344 58.4377C17.2959 58.4871 12.8811 55.3321 10.078 51.4508L4.40321 55.5492C8.10008 60.668 14.4353 65.5129 22.8969 65.4374C31.3429 65.362 40.8483 60.3897 50.9341 48.2351L45.5472 43.765ZM9.82791 51.143C8.36843 49.5409 7.56128 46.8287 7.5033 43.6191C7.44578 40.435 8.14252 37.5226 8.87117 36.0653L2.61016 32.9348C1.2625 35.6302 0.431684 39.7178 0.504445 43.7455C0.576745 47.7477 1.55771 52.4591 4.65326 55.8571L9.82791 51.143ZM8.86087 36.0857L24.3608 5.58567L18.1204 2.41433L2.62046 32.9144L8.86087 36.0857Z" fill="#460479"/>
<path d="M49.0567 46.0001L46.3633 48.2351L46.3633 48.2351L49.0567 46.0001ZM90.0568 53.5L87.2194 51.4508L87.3357 51.2898L87.4695 51.143L90.0568 53.5ZM91.5567 34.5001L94.6638 32.8888L94.6757 32.9117L94.6872 32.9348L91.5567 34.5001ZM72.6335 5.61121C71.7437 3.89522 72.4134 1.78276 74.1294 0.892913C75.8454 0.00306413 77.9578 0.67279 78.8477 2.38879L72.6335 5.61121ZM48.7406 7.5C44.7374 7.5 40.1972 9.70325 38.8791 14.3434C37.4958 19.2129 39.0635 28.476 51.7502 43.765L46.3633 48.2351C33.3529 32.556 29.7625 20.8192 32.1455 12.4306C34.5935 3.81274 42.7438 0.5 48.7406 0.5V7.5ZM51.7502 43.765C61.1644 55.1103 68.909 58.3881 74.463 58.4377C80.0015 58.4871 84.4163 55.3321 87.2194 51.4508L92.8942 55.5492C89.1973 60.668 82.8621 65.5129 74.4005 65.4374C65.9545 65.362 56.4491 60.3897 46.3633 48.2351L51.7502 43.765ZM87.4695 51.143C88.929 49.5409 89.7361 46.8287 89.7941 43.6191C89.8516 40.435 89.1549 37.5226 88.4262 36.0653L94.6872 32.9348C96.0349 35.6302 96.8657 39.7178 96.7929 43.7455C96.7206 47.7477 95.7397 52.4591 92.6441 55.8571L87.4695 51.143ZM88.4496 36.1113L72.6335 5.61121L78.8477 2.38879L94.6638 32.8888L88.4496 36.1113Z" fill="#460479"/>
</svg>
