<svg width="719" height="684" viewBox="0 0 719 684" fill="none" xmlns="http://www.w3.org/2000/svg">
<rect width="719" height="684" fill="#F8F8F8"/>
<path d="M474.621 660.433C475.122 659.547 475.719 658.546 476.368 657.55C477.848 655.275 480.976 655.513 482.482 657.771C484.056 660.131 482.954 663.342 480.263 664.239L478.422 664.852C477.277 665.234 476.014 664.936 475.161 664.082C474.19 663.112 473.945 661.628 474.621 660.433Z" fill="#BFBFBF"/>
<path d="M337.732 547.814C337.732 546.595 340.81 545.325 344.634 544.237C351.808 542.195 359.433 543.576 366.104 546.911C371.254 549.485 375.696 553.28 379.043 557.964L387.796 570.215C388.621 571.369 389.54 572.453 390.543 573.456C395.375 578.286 398.567 584.943 397.022 591.598C396.567 593.56 395.935 595.221 395.071 596.085C392.657 598.498 384.006 609.158 379.982 614.186C374.952 620.22 363.686 632.892 358.857 635.305C356.094 636.686 351.88 639.451 348.027 642.129C343.178 645.5 337.744 647.974 331.953 649.132C327.786 649.965 323.511 650.121 319.293 649.594L318.626 649.511C307.633 648.137 297.374 642.783 290.877 633.809C288.322 630.28 286.429 627.301 286.429 626.254C286.429 625.819 286.363 624.986 286.25 623.871C284.816 609.713 287.153 595.385 294.065 582.947C297.007 577.652 300.609 572.719 305.154 568.716C308.65 565.636 312.181 562.898 313.589 562.898C316.004 562.898 322.643 558.876 325.661 556.864C329.685 554.853 337.732 550.227 337.732 547.814Z" fill="#BFBFBF"/>
<path d="M473.845 491.845L477.173 490.182C484.012 486.763 492.272 488.103 497.679 493.508C501.702 498.537 510.354 508.593 512.768 508.593C515.786 508.593 521.821 520.661 524.839 520.661C526.372 520.661 529.607 525.525 532.538 530.62C535.533 535.828 536.379 541.955 535.391 547.88C534.417 553.723 531.641 559.116 527.451 563.304L526.285 564.47C523.34 567.414 519.828 569.729 515.962 571.275C509.962 573.675 503.376 574.032 497.04 572.762C494.689 572.29 492.637 571.949 491.643 571.949C490.145 571.949 488.57 568.853 487.35 565.541C485.997 561.872 484.398 558.27 482.052 555.142L481.131 553.915C478.15 549.942 474.029 546.972 469.317 545.402C468.108 544.999 466.868 544.691 465.61 544.482L455.708 542.832C451.679 542.161 448.107 539.852 445.841 536.453C444.221 534.025 443.334 531.171 443.45 528.255C443.694 522.124 444.472 514.627 446.375 514.627C449.393 514.627 455.429 502.559 461.464 499.542C463.989 498.28 466.074 496.963 467.632 495.85C469.638 494.418 471.641 492.947 473.845 491.845Z" fill="#BFBFBF"/>
<path d="M334.714 363.78C336.612 363.78 334.905 360.051 333.11 356.99C332.267 355.553 330.671 354.729 329.005 354.729C325.802 354.729 323.395 357.738 324.172 360.845C324.936 363.9 328.33 365.422 331.33 364.466C332.599 364.061 333.811 363.78 334.714 363.78Z" fill="#BFBFBF"/>
<path d="M310.194 401.891C313.519 396.804 317.938 390.401 321.844 385.592C325.475 381.122 331.425 381.61 335.498 385.682C336.967 387.15 338.074 388.941 338.732 390.912L343.682 405.76C345.743 411.942 347.038 418.353 347.538 424.85L349.495 450.274C349.694 452.864 350.814 455.298 352.651 457.135C354.692 459.175 355.839 461.944 355.839 464.83V509.066C355.839 514.679 354.313 520.186 351.425 524.999C348.395 530.047 344.027 534.219 338.605 536.514C335.65 537.764 332.899 538.763 331.696 538.763C324.959 538.763 321.116 547.814 314.379 547.814H301.518C300.213 547.814 298.85 546.052 297.714 543.956C296.121 541.02 297.411 537.477 300.191 535.624C302.796 533.888 304.021 530.704 303.325 527.651C302.425 523.696 301.518 519.265 301.518 517.644C301.518 506.583 285.537 501.783 284.302 490.791C283.79 486.233 283.411 482.489 283.411 481.441C283.411 479.173 297.613 435.909 306.006 410.664C307.034 407.574 308.413 404.617 310.194 401.891Z" fill="#BFBFBF"/>
<path d="M231.355 237.027C235.52 234.589 240.364 231.691 244.144 229.283C247.609 227.075 252.569 227.354 255.474 230.259C257.74 232.523 258.301 235.983 256.868 238.848L252.819 246.945C251.118 250.346 248.482 253.192 245.221 255.148L244.567 255.54C238.607 259.115 234.714 265.253 233.295 272.056C231.682 279.783 229.219 288.227 226.071 291.373C223.784 293.66 221.406 294.231 219.323 293.986C215.487 293.533 214 289.202 214 285.339V273.206C214 265.341 216.053 257.612 219.956 250.783L223.041 245.387C225.025 241.916 227.904 239.047 231.355 237.027Z" fill="#BFBFBF"/>
<path d="M301.123 59.1806L294.833 52.9255C291.099 49.2126 289 44.1644 289 38.8988C289 36.3694 289.451 33.8482 290.568 31.5791C293.103 26.4344 297.242 20 301.123 20H307.777C317.103 20 326.05 23.6912 332.663 30.2671C335.853 33.4394 338.407 37.1924 340.188 41.3239L344.514 51.362C345.868 54.5039 346.327 57.9589 345.841 61.3454L345.671 62.5278C344.456 70.9849 337.21 77.2639 328.666 77.2639C324.582 77.2639 320.631 75.8086 317.523 73.159L301.123 59.1806Z" fill="#727272"/>
<path d="M361.738 86.3056C370.379 81.2936 385.792 72.7097 395.691 68.1909C400.865 65.8291 406.183 67.8782 409.608 72.419C411.979 75.5632 413.262 79.3941 413.262 83.3322V86.3055C413.262 92.1732 411.35 97.8813 407.817 102.566L404.169 107.403L400.585 113.343C396.92 119.417 392.72 125.151 388.034 130.477L373.862 146.583C369.821 150.602 361.738 159.242 361.738 161.653V197.819V224.944C361.738 225.312 362.115 225.685 362.781 226.056C376.323 233.59 392.197 236.464 403.808 246.727C410.068 252.261 415.385 258.778 419.548 266.023L425.385 276.181C431.446 285.222 425.385 285.222 425.385 291.25V312.347C425.385 324.403 431.446 318.375 431.446 327.417C431.446 331.915 430.696 334.922 431.435 338.664C433.807 350.669 445.816 357.86 456.748 363.36C460.437 365.216 464.126 367.165 467.815 369.611C476.908 375.639 473.877 375.639 479.938 378.653C486 381.667 486 399.75 486 402.764C486 405.778 476.908 417.833 473.877 423.861L471.629 428.331C469.09 433.382 467.064 438.68 464.618 443.776C462.129 448.965 458.826 454 455.692 454C439.86 454 424.303 449.547 411.172 440.7C399.671 432.951 389.015 425.341 389.015 423.861C389.015 404.098 382.864 385.126 375.609 366.742C374.53 364.008 373.862 361.81 373.862 360.569C373.862 354.542 361.738 348.514 361.738 342.486C361.738 336.458 352.646 330.431 346.585 327.417C340.523 324.403 343.554 309.333 343.554 300.292C343.554 296.078 342.183 290.297 340.639 285.212C338.789 279.118 335.839 273.441 332.55 267.989L328.4 261.111L323.911 254.415C314.884 240.95 308.83 225.717 306.15 209.73C302.856 190.077 304.766 169.904 311.688 151.218L319.135 131.119C321.267 125.363 323.79 119.749 327.03 114.536C332.579 105.608 339.901 95.3472 343.554 95.3472C348.403 95.3472 357.697 89.3194 361.738 86.3056Z" fill="#727272"/>
<path d="M301.123 59.1806L294.833 52.9255C291.099 49.2126 289 44.1644 289 38.8988C289 36.3694 289.451 33.8482 290.568 31.5791C293.103 26.4344 297.242 20 301.123 20H307.777C317.103 20 326.05 23.6912 332.663 30.2671C335.853 33.4394 338.407 37.1924 340.188 41.3239L344.514 51.362C345.868 54.5039 346.327 57.9589 345.841 61.3454L345.671 62.5278C344.456 70.9849 337.21 77.2639 328.666 77.2639C324.582 77.2639 320.631 75.8086 317.523 73.159L301.123 59.1806Z" stroke="#E9E9E9"/>
<path d="M361.738 86.3056C370.379 81.2936 385.792 72.7097 395.691 68.1909C400.865 65.8291 406.183 67.8782 409.608 72.419C411.979 75.5632 413.262 79.3941 413.262 83.3322V86.3055C413.262 92.1732 411.35 97.8813 407.817 102.566L404.169 107.403L400.585 113.343C396.92 119.417 392.72 125.151 388.034 130.477L373.862 146.583C369.821 150.602 361.738 159.242 361.738 161.653V197.819V224.944C361.738 225.312 362.115 225.685 362.781 226.056C376.323 233.59 392.197 236.464 403.808 246.727C410.068 252.261 415.385 258.778 419.548 266.023L425.385 276.181C431.446 285.222 425.385 285.222 425.385 291.25V312.347C425.385 324.403 431.446 318.375 431.446 327.417C431.446 331.915 430.696 334.922 431.435 338.664C433.807 350.669 445.816 357.86 456.748 363.36C460.437 365.216 464.126 367.165 467.815 369.611C476.908 375.639 473.877 375.639 479.938 378.653C486 381.667 486 399.75 486 402.764C486 405.778 476.908 417.833 473.877 423.861L471.629 428.331C469.09 433.382 467.064 438.68 464.618 443.776C462.129 448.965 458.826 454 455.692 454C439.86 454 424.303 449.547 411.172 440.7C399.671 432.951 389.015 425.341 389.015 423.861C389.015 404.098 382.864 385.126 375.609 366.742C374.53 364.008 373.862 361.81 373.862 360.569C373.862 354.542 361.738 348.514 361.738 342.486C361.738 336.458 352.646 330.431 346.585 327.417C340.523 324.403 343.554 309.333 343.554 300.292C343.554 296.078 342.183 290.297 340.639 285.212C338.789 279.118 335.839 273.441 332.55 267.989L328.4 261.111L323.911 254.415C314.884 240.95 308.83 225.717 306.15 209.73C302.856 190.077 304.766 169.904 311.688 151.218L319.135 131.119C321.267 125.363 323.79 119.749 327.03 114.536C332.579 105.608 339.901 95.3472 343.554 95.3472C348.403 95.3472 357.697 89.3194 361.738 86.3056Z" stroke="#E9E9E9"/>
</svg>
