<svg width="719" height="659" viewBox="0 0 719 659" fill="none" xmlns="http://www.w3.org/2000/svg">
<rect width="719" height="659" fill="#F8F8F8"/>
<path d="M269.376 568.669L272.587 562.254C276.402 554.634 283.74 547.147 291.415 543.443C295.747 541.353 298.837 540.682 303.494 539.477C305.576 538.938 307.517 538.531 308.603 538.531C311.017 538.531 315.644 540.54 317.655 541.545C320.673 543.554 326.708 548.175 326.708 550.586C326.708 553.6 329.725 562.641 329.725 568.669C329.725 574.697 332.743 580.724 332.743 583.738C332.743 586.752 329.725 601.821 326.708 604.834C323.69 607.848 323.69 610.862 320.673 613.876C317.655 616.89 317.655 624.565 314.638 628.945C310.479 634.982 302.742 637.639 295.936 640.365C294.953 640.759 294.107 641 293.516 641H281.446C276.936 641 274.941 635.634 273.388 631.4C272.212 628.195 270.761 625.192 269.376 624.565C266.359 623.198 266.359 616.89 263.341 613.876C260.324 610.862 263.341 589.766 263.341 586.752C263.341 584.341 267.364 573.692 269.376 568.669Z" fill="#BFBFBF"/>
<path d="M429.302 577.71L435.336 490.31C435.336 488.646 436.686 487.297 438.35 487.297H442.48C443.59 487.297 453.441 484.283 456.459 484.283C459.476 484.283 462.494 484.283 462.494 487.297C462.494 487.619 462.638 488.054 462.898 488.574C468.075 498.947 481.075 502.366 492.668 502.366C500.397 502.366 507.976 505.296 512.907 511.248C515.122 513.922 516.808 516.331 516.808 517.434C516.808 520.448 513.79 538.531 513.79 541.545C513.79 543.956 503.732 558.623 498.703 565.655C493.674 572.687 483.012 587.354 480.598 589.766C477.581 592.779 462.494 604.834 459.476 607.848C457.378 609.944 449.607 613.71 444.55 615.978C443.188 616.589 441.71 616.89 440.218 616.89C435.5 616.89 431.312 613.872 429.819 609.397L427.775 603.274C426.794 600.336 426.512 597.211 426.951 594.145L429.302 577.71Z" fill="#BFBFBF"/>
<path d="M447.406 473.56C447.406 474.332 445.297 470.593 443.369 466.989C442.162 464.733 442.601 461.959 444.411 460.15C446.2 458.363 448.931 457.92 451.194 459.05L452.331 459.618C453.067 459.985 453.738 460.468 454.319 461.049L454.623 461.353C457.562 464.289 458.79 469.007 455.978 472.066C455.16 472.956 454.288 473.56 453.441 473.56C450.424 473.56 447.406 472.228 447.406 473.56Z" fill="#BFBFBF"/>
<path d="M435.336 342.634C438.046 339.928 448.056 337.222 452.255 334.515C453.067 333.992 453.984 333.593 454.95 333.593C455.916 333.593 456.842 333.976 457.576 334.603C459.092 335.898 461.88 338.087 466.114 341L466.259 341.101C467.81 342.167 469.395 343.257 470.507 344.772C471.546 346.187 471.546 347.451 471.546 351.676C471.546 357.703 474.563 357.703 474.563 363.731C474.563 369.759 474.563 366.745 477.581 369.759C480.598 372.772 477.581 381.814 480.598 384.828C483.616 387.841 480.598 387.841 483.616 393.869C486.633 399.897 489.651 396.883 492.668 399.897C495.686 402.91 498.703 402.91 501.721 405.924C504.738 408.938 504.738 405.924 507.756 402.91C510.773 399.897 513.79 402.91 519.825 399.897C525.86 396.883 525.86 396.883 528.878 396.883C531.895 396.883 537.93 393.869 540.948 393.869C543.965 393.869 546.983 399.897 546.983 402.91C546.983 405.924 550 414.966 550 417.979C550 424.204 543.664 428.143 538.907 432.157C538.554 432.455 538.226 432.753 537.93 433.048C535.516 435.459 528.878 436.062 525.86 436.062C521.837 436.062 512.583 435.459 507.756 433.048C501.717 430.033 494.783 436.681 488.328 438.652C484.868 439.708 481.767 440.923 480.598 442.09C477.581 445.103 477.581 445.103 474.563 445.103C473.287 445.103 470.828 445.666 468.348 446.344C464.517 447.392 460.457 447.439 456.689 446.185C454.542 445.47 452.546 444.365 450.801 442.925L447.208 439.962C444.072 437.375 441.315 434.36 439.018 431.005L438.354 430.034L436.789 427.95C431.913 421.457 425.351 414.966 417.232 414.966C416.24 414.966 414.194 413.608 411.849 411.73C405.454 406.607 403.111 398.083 404.72 390.048C405.014 388.58 405.442 387.142 405.998 385.752L411.197 372.772L411.601 371.966C417.233 360.715 426.171 351.788 435.074 342.897L435.336 342.634Z" fill="#BFBFBF"/>
<path d="M284.973 445.103H292.007C300.861 445.103 309.827 447.345 316.538 453.121C316.969 453.492 317.347 453.836 317.655 454.145C319.258 455.745 320.948 458.319 322.199 460.456C323.244 462.244 324.302 464.028 325.52 465.704C330.214 472.165 333.007 479.978 332.07 487.909C331.611 491.794 330.872 495.192 329.725 496.338C328.055 498.006 327.252 502.656 326.915 506.694C326.675 509.576 325.073 512.223 322.486 513.515C321.298 514.109 320.285 515.002 319.548 516.106L318.215 518.103C315.913 521.551 312.409 524.019 308.387 525.023L307.005 525.368C304.083 526.098 301.037 526.17 298.084 525.58L295.648 525.094C290.323 524.03 285.43 521.414 281.588 517.576L279.42 515.411C278.763 514.755 278.005 514.209 277.174 513.794C274.245 512.331 272.394 509.338 272.394 506.063V498.842C272.394 497.179 272.189 495.522 271.785 493.909L270.321 488.058C269.696 485.562 268.621 483.202 267.147 481.092C264.67 477.547 263.341 473.325 263.341 469V463.186C263.341 461.532 265.235 457.892 267.074 454.796C268.533 452.339 270.601 450.316 272.979 448.732C276.533 446.366 280.704 445.103 284.973 445.103Z" fill="#BFBFBF"/>
<path d="M466.438 204H459.842C453.728 204 447.779 205.981 442.886 209.646L441.857 210.417C439.538 212.154 437.532 214.272 435.924 216.682C433.558 220.226 432.115 224.301 431.741 228.546C430.694 240.444 429.302 257.25 429.302 261.262V285.372C429.302 288.386 429.302 288.386 432.319 288.386C434.276 288.386 436.365 292.347 437.622 295.452C438.141 296.737 438.864 297.937 439.845 298.917C442.559 301.628 446.703 302.3 450.135 300.586L453.207 299.052C455.338 297.987 457.154 296.385 458.477 294.404L462.494 288.386L467.362 281.093C468.138 279.93 469.027 278.847 470.015 277.86C472.981 274.898 475.003 271.124 475.826 267.014L477.581 258.248C479.579 252.26 480.598 245.988 480.598 239.675V225.908C480.598 223.367 480.286 220.837 479.67 218.372L478.412 213.346C477.868 211.175 476.744 209.192 475.16 207.61C472.846 205.298 469.709 204 466.438 204Z" fill="#BFBFBF"/>
<path d="M462.607 7.74576H441.133C439.463 7.74576 437.908 8.57996 436.982 9.96885C434.905 13.0825 436.865 17.2894 440.585 17.7026L453.554 19.1431C458.583 19.3666 469.246 19.2101 471.661 16.7966C474.679 13.7796 465.625 7.74576 462.607 7.74576Z" fill="#BFBFBF"/>
<path d="M449.299 45.1854L458.042 36.4449C460.841 33.647 464.979 32.6716 468.733 33.9227C470.644 34.5595 472.33 35.735 473.589 37.3077L480.432 45.8588C482.625 48.5999 485.129 51.0711 487.802 53.3475C492.845 57.6429 498.821 63.2075 498.821 65.0678C498.821 68.0848 507.875 80.1526 510.893 83.1695C511.809 84.0852 513.333 85.0297 515.036 85.9044C519.931 88.4177 524.347 91.9681 526.808 96.8894C528.25 99.771 529 102.949 529 106.17V107.305C529 111.273 528.076 115.187 526.301 118.736L525.8 119.738C523.93 123.477 521.306 126.788 518.094 129.464L506.983 138.72C505.568 139.899 504.064 140.967 502.484 141.915L500.435 143.144C493.605 147.241 488.682 153.883 486.75 161.61C485.744 167.644 483.732 180.315 483.732 182.729C483.732 188.611 476.998 191.78 471.116 191.78H462.607H449.343C442.547 191.78 436.199 188.383 432.429 182.729C426.552 174.896 423.375 165.367 423.375 155.575V100.763C423.375 89.2507 426.504 77.9554 432.429 68.0848L446.053 49.0169C447.028 47.6521 448.113 46.3714 449.299 45.1854Z" fill="#BFBFBF"/>
<path d="M304.454 151.422L304.623 150.747C305.302 148.031 306.969 145.665 309.299 144.112C312.659 141.873 316.949 141.633 320.634 143.283C324.364 144.953 328.312 146.525 329.821 146.525C338.592 146.525 324.33 162.835 316.611 167C315.859 167.406 315.212 167.644 314.732 167.644C313.386 167.644 310.725 165.767 308.112 163.584C304.592 160.644 303.341 155.871 304.454 151.422Z" fill="#727272"/>
<path d="M260.833 159.64C262.413 159.407 263.914 159.194 265.223 159.022C267.932 158.667 270.55 159.678 272.482 161.61C276.506 165.633 284.554 174.281 284.554 176.695C284.554 179.712 293.607 182.729 296.625 194.797C299.643 206.864 302.661 206.864 305.679 209.881C307.613 211.815 307.093 240.988 306.293 263.89C305.936 274.096 308.696 284.144 308.696 294.356C308.696 297.373 311.714 333.576 311.714 339.61C311.714 345.644 308.696 369.78 305.679 375.814C302.661 381.847 293.607 396.932 293.607 399.949C293.607 400.531 292.79 401.241 291.45 402.012C280.164 408.506 266.022 405.771 254.375 399.949C244.88 394.254 238.621 384.406 237.582 373.384C236.871 365.842 236.268 359.033 236.268 357.712C236.268 355.298 232.244 342.627 230.232 336.593C228.232 328.597 227.466 320.339 228.145 312.125C229.416 296.754 231.392 278.111 233.25 276.254C235.046 274.459 234.727 246.956 234.031 223.051C233.604 208.355 235.204 193.506 240.853 179.934C241.388 178.65 241.88 177.542 242.304 176.695C242.807 175.688 243.319 174.577 243.824 173.42C246.935 166.289 253.135 160.775 260.833 159.64Z" fill="#727272"/>
</svg>
