<svg width="2727" height="2500" viewBox="0 0 2727 2500" fill="none" xmlns="http://www.w3.org/2000/svg">
<rect width="2727" height="2500" fill="#F8F8F8"/>
<path d="M1357.06 1924.07L1364.04 1919.87C1368.24 1917.34 1373.06 1916 1377.97 1916H1385.55H1391.35C1400.85 1916 1409.73 1921.12 1414.61 1929.27C1415.34 1930.5 1415.99 1931.81 1416.52 1933.15L1421.76 1946.28L1423.73 1952.22C1424.43 1954.31 1424.86 1956.48 1425.03 1958.67L1427.59 1992.04C1427.72 1993.83 1428.08 1995.59 1428.64 1997.3C1430.05 2001.54 1432.77 2005.21 1436.16 2008.13C1439.58 2011.09 1442.88 2014.38 1442.88 2015.93C1442.88 2018.35 1450.93 2031.07 1454.95 2037.13C1457.97 2042.17 1464 2052.87 1464 2055.3V2063.04C1464 2065.93 1463.55 2068.81 1462.58 2071.54C1460.29 2077.99 1456.9 2086.65 1454.95 2088.61C1452.53 2091.03 1441.87 2099.71 1436.84 2103.75L1431.99 2107.4C1427.31 2110.93 1421.61 2112.83 1415.75 2112.83H1409.36C1407.57 2112.83 1405.79 2113.01 1404.04 2113.36L1397.28 2114.72C1393.53 2115.47 1389.98 2117.01 1386.86 2119.24L1377.52 2125.94C1372.93 2129.23 1367.43 2131 1361.79 2131H1358.4L1339.04 2128.84C1333.95 2128.27 1329.12 2126.27 1325.13 2123.06L1306.86 2108.39C1303.07 2105.35 1300.17 2101.34 1298.47 2096.79L1292.02 2079.52L1289.8 2070.62C1289.27 2068.49 1289 2066.3 1289 2064.1V2043.48C1289 2039.3 1289.97 2035.18 1291.83 2031.44L1292.02 2031.07C1293.02 2029.05 1295.64 2024.41 1298.05 2021.99L1313.81 2006.17C1315.37 2004.61 1317.11 2003.24 1319.01 2002.1L1341.8 1988.38C1344.79 1986.57 1347.4 1984.21 1349.49 1981.41L1355.38 1973.54L1359.52 1967.3C1360.75 1965.44 1361.41 1963.26 1361.41 1961.03C1361.41 1957.46 1359.74 1954.11 1356.89 1951.96L1355.38 1950.82C1351.58 1947.96 1349.34 1943.48 1349.34 1938.73V1937.73C1349.34 1933.51 1351.02 1929.46 1353.99 1926.48C1354.91 1925.55 1355.94 1924.74 1357.06 1924.07Z" fill="#727272"/>
<path d="M1414.59 2277.08L1411.48 2269.24C1410.29 2266.25 1412.49 2263 1415.71 2263C1417.15 2263 1418.51 2263.68 1419.37 2264.84L1423.64 2270.57C1425.82 2273.5 1427 2277.06 1427 2280.72V2287.43C1427 2289.16 1426.14 2290.78 1424.7 2291.74C1421.56 2293.85 1417.3 2292.01 1416.68 2288.28L1415.18 2279.2C1415.06 2278.48 1414.86 2277.77 1414.59 2277.08Z" fill="#727272"/>
<path d="M1321.71 2362.73H1334H1337.22C1339.06 2362.73 1340.89 2362.43 1342.63 2361.85L1347.4 2360.25C1348.46 2359.89 1349.57 2359.71 1350.69 2359.71C1356.38 2359.71 1361 2364.33 1361 2370.03V2373.33C1361 2376.26 1360.05 2379.11 1358.3 2381.46L1353.99 2387.26C1352.68 2389.03 1351.03 2390.52 1349.15 2391.66L1345.05 2394.14C1340.04 2397.16 1334 2396.17 1328.15 2395.98C1328.1 2395.98 1328.05 2395.98 1328 2395.98C1325.84 2395.98 1321.89 2387.8 1319.67 2382.5C1319.21 2381.42 1318.67 2380.37 1318.03 2379.4L1315.12 2375C1313.78 2372.98 1313.44 2370.46 1314.21 2368.16C1315.28 2364.92 1318.3 2362.73 1321.71 2362.73Z" fill="#727272"/>
<path d="M1445.77 1557.08C1449.81 1554.06 1459.1 1548 1463.94 1548C1466.18 1548 1467.3 1550.7 1465.72 1552.28L1460.91 1557.08C1457.04 1560.96 1454.86 1566.22 1454.86 1571.7V1617.64V1618.39C1454.86 1623.8 1453.1 1629.06 1449.86 1633.39L1445.77 1638.83L1444.01 1641.48C1441.33 1645.5 1436.81 1647.92 1431.98 1647.92C1429.12 1647.92 1426.33 1648.76 1423.96 1650.34L1423.06 1650.94C1420.09 1652.92 1416.61 1653.97 1413.05 1653.97H1412.05C1410.31 1653.97 1408.57 1654.19 1406.88 1654.61L1400.3 1656.25C1398.32 1656.75 1396.28 1657 1394.24 1657H1394.13C1390.25 1657 1386.42 1656.1 1382.95 1654.36L1378.56 1652.17C1373.08 1649.43 1368.8 1644.78 1366.53 1639.09L1365.79 1637.25C1364.61 1634.3 1364 1631.14 1364 1627.96V1626.41C1364 1620.73 1365.93 1615.22 1369.48 1610.79L1374.65 1604.33C1375.62 1603.11 1376.71 1601.99 1377.9 1600.97L1397.31 1584.33C1405.39 1578.28 1422.75 1566.17 1427.6 1566.17C1432.45 1566.17 1441.73 1560.11 1445.77 1557.08Z" fill="#727272"/>
<path d="M1305.76 1431H1302.36C1299.49 1431 1296.67 1431.67 1294.1 1432.95L1293.39 1433.31C1292.46 1433.77 1291.51 1434.16 1290.53 1434.49L1283 1437L1275.42 1439.53C1268.57 1441.81 1259 1444.78 1259 1452C1259 1453.87 1257.79 1461.92 1256.78 1468.22C1256.34 1470.98 1257.95 1473.65 1260.59 1474.53C1263.16 1475.39 1264.76 1477.93 1264.42 1480.61L1262.67 1494.62C1262.25 1498.02 1263.41 1501.41 1265.83 1503.83C1267.25 1505.25 1268.26 1507.03 1268.74 1508.98L1271 1518L1271.46 1519.83C1273.09 1526.34 1277.23 1531.94 1282.99 1535.39C1286.92 1537.75 1291.42 1539 1296.01 1539H1305.84C1314.45 1539 1322.9 1536.66 1330.29 1532.23C1332.76 1530.75 1335.36 1529.49 1338.05 1528.48L1350.39 1523.85C1355.43 1521.96 1360.14 1519.29 1364.34 1515.92L1388 1497L1395.39 1492.07C1401.81 1487.79 1405.01 1480.06 1403.5 1472.5C1403.17 1470.84 1402.62 1469.23 1401.86 1467.72L1397 1458L1394.59 1454.39C1392.22 1450.83 1389.17 1447.78 1385.61 1445.41C1383.21 1443.81 1380.62 1442.54 1377.88 1441.63L1373 1440L1362.3 1437.86C1359.45 1437.29 1356.68 1436.34 1354.08 1435.04L1353.24 1434.62C1352.42 1434.21 1351.56 1433.85 1350.68 1433.56L1345.55 1431.85C1343.92 1431.31 1342.57 1430.13 1341.8 1428.59C1340.7 1426.39 1338.45 1425 1335.98 1425H1320.24C1317.53 1425 1314.92 1426.08 1313 1428C1311.08 1429.92 1308.47 1431 1305.76 1431Z" fill="#727272"/>
<path d="M1240.38 1318.67L1243.59 1312.25C1247.4 1304.63 1254.74 1297.15 1262.41 1293.44C1266.75 1291.35 1269.84 1290.68 1274.49 1289.48C1276.58 1288.94 1278.52 1288.53 1279.6 1288.53C1282.02 1288.53 1286.64 1290.54 1288.66 1291.54C1291.67 1293.55 1297.71 1298.18 1297.71 1300.59C1297.71 1303.6 1300.73 1312.64 1300.73 1318.67C1300.73 1324.7 1303.74 1330.72 1303.74 1333.74C1303.74 1336.75 1300.73 1351.82 1297.71 1354.83C1294.69 1357.85 1294.69 1360.86 1291.67 1363.88C1288.66 1366.89 1288.66 1374.56 1285.64 1378.94C1281.48 1384.98 1273.74 1387.64 1266.94 1390.36C1265.95 1390.76 1265.11 1391 1264.52 1391H1252.45C1247.94 1391 1245.94 1385.63 1244.39 1381.4C1243.21 1378.2 1241.76 1375.19 1240.38 1374.56C1237.36 1373.2 1237.36 1366.89 1234.34 1363.88C1231.32 1360.86 1234.34 1339.77 1234.34 1336.75C1234.34 1334.34 1238.36 1323.69 1240.38 1318.67Z" fill="#727272"/>
<path d="M1400.3 1327.71L1406.34 1240.31C1406.34 1238.65 1407.69 1237.3 1409.35 1237.3H1413.48C1414.59 1237.3 1424.44 1234.28 1427.46 1234.28C1430.48 1234.28 1433.49 1234.28 1433.49 1237.3C1433.49 1237.62 1433.64 1238.05 1433.9 1238.57C1439.07 1248.95 1452.08 1252.37 1463.67 1252.37C1471.4 1252.37 1478.98 1255.3 1483.91 1261.25C1486.12 1263.92 1487.81 1266.33 1487.81 1267.43C1487.81 1270.45 1484.79 1288.53 1484.79 1291.54C1484.79 1293.96 1474.73 1308.62 1469.7 1315.66C1464.67 1322.69 1454.01 1337.35 1451.6 1339.77C1448.58 1342.78 1433.49 1354.83 1430.48 1357.85C1428.38 1359.94 1420.61 1363.71 1415.55 1365.98C1414.19 1366.59 1412.71 1366.89 1411.22 1366.89C1406.5 1366.89 1402.31 1363.87 1400.82 1359.4L1398.77 1353.27C1397.79 1350.34 1397.51 1347.21 1397.95 1344.15L1400.3 1327.71Z" fill="#727272"/>
<path d="M1418.41 1223.56C1418.41 1224.33 1416.3 1220.59 1414.37 1216.99C1413.16 1214.73 1413.6 1211.96 1415.41 1210.15C1417.2 1208.36 1419.93 1207.92 1422.19 1209.05L1423.33 1209.62C1424.07 1209.99 1424.74 1210.47 1425.32 1211.05L1425.62 1211.35C1428.56 1214.29 1429.79 1219.01 1426.98 1222.07C1426.16 1222.96 1425.29 1223.56 1424.44 1223.56C1421.42 1223.56 1418.41 1222.23 1418.41 1223.56Z" fill="#727272"/>
<path d="M1406.34 1092.63C1409.05 1089.93 1419.06 1087.22 1423.25 1084.52C1424.07 1083.99 1424.98 1083.59 1425.95 1083.59C1426.92 1083.59 1427.84 1083.98 1428.58 1084.6C1430.09 1085.9 1432.88 1088.09 1437.11 1091L1437.26 1091.1C1438.81 1092.17 1440.4 1093.26 1441.51 1094.77C1442.55 1096.19 1442.55 1097.45 1442.55 1101.68C1442.55 1107.7 1445.56 1107.7 1445.56 1113.73C1445.56 1119.76 1445.56 1116.74 1448.58 1119.76C1451.6 1122.77 1448.58 1131.81 1451.6 1134.83C1454.62 1137.84 1451.6 1137.84 1454.62 1143.87C1457.63 1149.9 1460.65 1146.88 1463.67 1149.9C1466.69 1152.91 1469.7 1152.91 1472.72 1155.92C1475.74 1158.94 1475.74 1155.92 1478.76 1152.91C1481.77 1149.9 1484.79 1152.91 1490.83 1149.9C1496.86 1146.88 1496.86 1146.88 1499.88 1146.88C1502.9 1146.88 1508.93 1143.87 1511.95 1143.87C1514.97 1143.87 1517.98 1149.9 1517.98 1152.91C1517.98 1155.92 1521 1164.97 1521 1167.98C1521 1174.2 1514.66 1178.14 1509.91 1182.16C1509.55 1182.46 1509.23 1182.75 1508.93 1183.05C1506.52 1185.46 1499.88 1186.06 1496.86 1186.06C1492.84 1186.06 1483.58 1185.46 1478.76 1183.05C1472.72 1180.03 1465.78 1186.68 1459.33 1188.65C1455.87 1189.71 1452.77 1190.92 1451.6 1192.09C1448.58 1195.1 1448.58 1195.1 1445.56 1195.1C1444.29 1195.1 1441.83 1195.67 1439.35 1196.34C1435.52 1197.39 1431.46 1197.44 1427.69 1196.18C1425.54 1195.47 1423.55 1194.36 1421.8 1192.93L1418.21 1189.96C1415.07 1187.37 1412.32 1184.36 1410.02 1181L1409.35 1180.03L1407.79 1177.95C1402.91 1171.46 1396.35 1164.97 1388.23 1164.97C1387.24 1164.97 1385.19 1163.61 1382.85 1161.73C1376.45 1156.61 1374.11 1148.08 1375.72 1140.05C1376.01 1138.58 1376.44 1137.14 1377 1135.75L1382.2 1122.77L1382.6 1121.97C1388.23 1110.72 1397.17 1101.79 1406.07 1092.9L1406.34 1092.63Z" fill="#727272"/>
<path d="M1255.97 1195.1H1263.01C1271.86 1195.1 1280.83 1197.34 1287.54 1203.12C1287.97 1203.49 1288.35 1203.84 1288.66 1204.14C1290.26 1205.75 1291.95 1208.32 1293.2 1210.46C1294.24 1212.24 1295.3 1214.03 1296.52 1215.7C1301.21 1222.17 1304.01 1229.98 1303.07 1237.91C1302.61 1241.79 1301.87 1245.19 1300.73 1246.34C1299.06 1248.01 1298.25 1252.66 1297.91 1256.69C1297.67 1259.58 1296.07 1262.22 1293.49 1263.52C1292.3 1264.11 1291.29 1265 1290.55 1266.11L1289.22 1268.1C1286.91 1271.55 1283.41 1274.02 1279.39 1275.02L1278 1275.37C1275.08 1276.1 1272.04 1276.17 1269.08 1275.58L1266.65 1275.09C1261.32 1274.03 1256.43 1271.41 1252.59 1267.58L1250.42 1265.41C1249.76 1264.76 1249 1264.21 1248.17 1263.79C1245.24 1262.33 1243.39 1259.34 1243.39 1256.06V1248.84C1243.39 1247.18 1243.19 1245.52 1242.79 1243.91L1241.32 1238.06C1240.7 1235.56 1239.62 1233.2 1238.15 1231.09C1235.67 1227.55 1234.34 1223.33 1234.34 1219V1213.19C1234.34 1211.53 1236.23 1207.89 1238.07 1204.8C1239.53 1202.34 1241.6 1200.32 1243.98 1198.73C1247.53 1196.37 1251.7 1195.1 1255.97 1195.1Z" fill="#727272"/>
<path d="M1437.44 954H1430.84C1424.73 954 1418.78 955.981 1413.89 959.646L1412.86 960.417C1410.54 962.154 1408.53 964.272 1406.92 966.682C1404.56 970.226 1403.11 974.301 1402.74 978.546C1401.69 990.444 1400.3 1007.25 1400.3 1011.26V1035.37C1400.3 1038.39 1400.3 1038.39 1403.32 1038.39C1405.28 1038.39 1407.36 1042.35 1408.62 1045.45C1409.14 1046.74 1409.86 1047.94 1410.84 1048.92C1413.56 1051.63 1417.7 1052.3 1421.13 1050.59L1424.21 1049.05C1426.34 1047.99 1428.15 1046.39 1429.48 1044.4L1433.49 1038.39L1438.36 1031.09C1439.14 1029.93 1440.03 1028.85 1441.02 1027.86C1443.98 1024.9 1446 1021.12 1446.83 1017.01L1448.58 1008.25C1450.58 1002.26 1451.6 995.988 1451.6 989.675V975.908C1451.6 973.367 1451.29 970.837 1450.67 968.372L1449.41 963.346C1448.87 961.175 1447.74 959.192 1446.16 957.61C1443.85 955.298 1440.71 954 1437.44 954Z" fill="#727272"/>
<path d="M1275.45 901.422L1275.62 900.747C1276.3 898.031 1277.97 895.665 1280.3 894.112C1283.66 891.873 1287.95 891.633 1291.63 893.283C1295.36 894.953 1299.31 896.525 1300.82 896.525C1309.59 896.525 1295.33 912.835 1287.61 917C1286.86 917.406 1286.21 917.644 1285.73 917.644C1284.39 917.644 1281.73 915.767 1279.11 913.584C1275.59 910.644 1274.34 905.871 1275.45 901.422Z" fill="#727272"/>
<path d="M1231.83 909.64C1233.41 909.407 1234.91 909.194 1236.22 909.022C1238.93 908.667 1241.55 909.678 1243.48 911.61C1247.51 915.633 1255.55 924.281 1255.55 926.695C1255.55 929.712 1264.61 932.729 1267.62 944.797C1270.64 956.864 1273.66 956.864 1276.68 959.881C1278.61 961.815 1278.09 990.988 1277.29 1013.89C1276.94 1024.1 1279.7 1034.14 1279.7 1044.36C1279.7 1047.37 1282.71 1083.58 1282.71 1089.61C1282.71 1095.64 1279.7 1119.78 1276.68 1125.81C1273.66 1131.85 1264.61 1146.93 1264.61 1149.95C1264.61 1150.53 1263.79 1151.24 1262.45 1152.01C1251.16 1158.51 1237.02 1155.77 1225.38 1149.95C1215.88 1144.25 1209.62 1134.41 1208.58 1123.38C1207.87 1115.84 1207.27 1109.03 1207.27 1107.71C1207.27 1105.3 1203.24 1092.63 1201.23 1086.59C1199.23 1078.6 1198.47 1070.34 1199.14 1062.12C1200.42 1046.75 1202.39 1028.11 1204.25 1026.25C1206.05 1024.46 1205.73 996.956 1205.03 973.051C1204.6 958.355 1206.2 943.506 1211.85 929.934C1212.39 928.65 1212.88 927.542 1213.3 926.695C1213.81 925.688 1214.32 924.577 1214.82 923.42C1217.94 916.289 1224.14 910.775 1231.83 909.64Z" fill="#727272"/>
<path d="M1433.61 757.746H1412.13C1410.46 757.746 1408.91 758.58 1407.98 759.969C1405.91 763.083 1407.87 767.289 1411.59 767.703L1424.55 769.143C1429.58 769.367 1440.25 769.21 1442.66 766.797C1445.68 763.78 1436.62 757.746 1433.61 757.746Z" fill="#727272"/>
<path d="M1420.3 795.185L1429.04 786.445C1431.84 783.647 1435.98 782.672 1439.73 783.923C1441.64 784.56 1443.33 785.735 1444.59 787.308L1451.43 795.859C1453.63 798.6 1456.13 801.071 1458.8 803.348C1463.84 807.643 1469.82 813.207 1469.82 815.068C1469.82 818.085 1478.88 830.153 1481.89 833.169C1482.81 834.085 1484.33 835.03 1486.04 835.904C1490.93 838.418 1495.35 841.968 1497.81 846.889C1499.25 849.771 1500 852.949 1500 856.17V857.305C1500 861.273 1499.08 865.187 1497.3 868.736L1496.8 869.738C1494.93 873.477 1492.31 876.788 1489.09 879.464L1477.98 888.72C1476.57 889.899 1475.06 890.967 1473.48 891.915L1471.44 893.144C1464.61 897.241 1459.68 903.883 1457.75 911.61C1456.74 917.644 1454.73 930.315 1454.73 932.729C1454.73 938.611 1448 941.78 1442.12 941.78H1433.61H1420.34C1413.55 941.78 1407.2 938.383 1403.43 932.729C1397.55 924.896 1394.38 915.367 1394.38 905.575V850.763C1394.38 839.251 1397.5 827.955 1403.43 818.085L1417.05 799.017C1418.03 797.652 1419.11 796.371 1420.3 795.185Z" fill="#727272"/>
<path d="M1257.67 730.593H1289.33C1290.68 730.593 1291.77 731.686 1291.77 733.034C1291.77 733.413 1291.68 733.787 1291.51 734.126L1289.34 738.468C1287.05 743.044 1282.88 746.392 1277.91 747.633C1275.12 748.33 1272.2 748.32 1269.4 747.673C1265.26 746.716 1260.31 745.678 1258.57 745.678C1257.1 745.678 1254.82 744.193 1252.8 742.576C1250.7 740.888 1250.06 738.026 1250.91 735.465C1251.88 732.556 1254.6 730.593 1257.67 730.593Z" fill="#727272"/>
<path d="M1422.62 704.433C1423.12 703.547 1423.72 702.546 1424.37 701.55C1425.85 699.275 1428.98 699.513 1430.48 701.771C1432.06 704.131 1430.95 707.342 1428.26 708.239L1426.42 708.852C1425.28 709.234 1424.01 708.936 1423.16 708.082C1422.19 707.112 1421.95 705.628 1422.62 704.433Z" fill="#727272"/>
<path d="M1285.73 591.814C1285.73 590.595 1288.81 589.325 1292.63 588.237C1299.81 586.195 1307.43 587.576 1314.1 590.911C1319.25 593.485 1323.7 597.28 1327.04 601.964L1335.8 614.215C1336.62 615.369 1337.54 616.453 1338.54 617.456C1343.37 622.286 1346.57 628.943 1345.02 635.598C1344.57 637.56 1343.94 639.221 1343.07 640.085C1340.66 642.498 1332.01 653.158 1327.98 658.186C1322.95 664.22 1311.69 676.892 1306.86 679.305C1304.09 680.686 1299.88 683.451 1296.03 686.129C1291.18 689.5 1285.74 691.974 1279.95 693.132C1275.79 693.965 1271.51 694.121 1267.29 693.594L1266.63 693.511C1255.63 692.137 1245.37 686.783 1238.88 677.809C1236.32 674.28 1234.43 671.301 1234.43 670.254C1234.43 669.819 1234.36 668.986 1234.25 667.871C1232.82 653.713 1235.15 639.385 1242.06 626.947C1245.01 621.652 1248.61 616.719 1253.15 612.716C1256.65 609.636 1260.18 606.898 1261.59 606.898C1264 606.898 1270.64 602.876 1273.66 600.864C1277.68 598.853 1285.73 594.227 1285.73 591.814Z" fill="#727272"/>
<path d="M1421.85 535.845L1425.17 534.182C1432.01 530.763 1440.27 532.103 1445.68 537.508C1449.7 542.537 1458.35 552.593 1460.77 552.593C1463.79 552.593 1469.82 564.661 1472.84 564.661C1474.37 564.661 1477.61 569.525 1480.54 574.62C1483.53 579.828 1484.38 585.955 1483.39 591.88C1482.42 597.723 1479.64 603.116 1475.45 607.304L1474.28 608.47C1471.34 611.414 1467.83 613.729 1463.96 615.275C1457.96 617.675 1451.38 618.032 1445.04 616.762C1442.69 616.29 1440.64 615.949 1439.64 615.949C1438.15 615.949 1436.57 612.853 1435.35 609.541C1434 605.872 1432.4 602.27 1430.05 599.142L1429.13 597.915C1426.15 593.942 1422.03 590.972 1417.32 589.402C1416.11 588.999 1414.87 588.691 1413.61 588.482L1403.71 586.832C1399.68 586.161 1396.11 583.852 1393.84 580.453C1392.22 578.025 1391.33 575.171 1391.45 572.255C1391.69 566.124 1392.47 558.627 1394.38 558.627C1397.39 558.627 1403.43 546.559 1409.46 543.542C1411.99 542.28 1414.07 540.963 1415.63 539.85C1417.64 538.418 1419.64 536.947 1421.85 535.845Z" fill="#727272"/>
<path d="M1282.71 407.78C1284.61 407.78 1282.9 404.051 1281.11 400.99C1280.27 399.553 1278.67 398.729 1277 398.729C1273.8 398.729 1271.4 401.738 1272.17 404.845C1272.94 407.9 1276.33 409.422 1279.33 408.466C1280.6 408.061 1281.81 407.78 1282.71 407.78Z" fill="#727272"/>
<path d="M1258.19 445.891C1261.52 440.804 1265.94 434.401 1269.84 429.592C1273.47 425.122 1279.43 425.61 1283.5 429.682C1284.97 431.15 1286.07 432.941 1286.73 434.912L1291.68 449.76C1293.74 455.942 1295.04 462.353 1295.54 468.85L1297.49 494.274C1297.69 496.864 1298.81 499.298 1300.65 501.135C1302.69 503.175 1303.84 505.944 1303.84 508.83V553.066C1303.84 558.679 1302.31 564.186 1299.43 568.999C1296.4 574.047 1292.03 578.219 1286.6 580.514C1283.65 581.764 1280.9 582.763 1279.7 582.763C1272.96 582.763 1269.12 591.814 1262.38 591.814H1249.52C1248.21 591.814 1246.85 590.052 1245.71 587.956C1244.12 585.02 1245.41 581.477 1248.19 579.624C1250.8 577.888 1252.02 574.704 1251.33 571.651C1250.42 567.696 1249.52 563.265 1249.52 561.644C1249.52 550.583 1233.54 545.783 1232.3 534.791C1231.79 530.233 1231.41 526.489 1231.41 525.441C1231.41 523.173 1245.61 479.909 1254.01 454.664C1255.03 451.574 1256.41 448.617 1258.19 445.891Z" fill="#727272"/>
<path d="M1179.36 281.027C1183.52 278.589 1188.36 275.691 1192.14 273.283C1195.61 271.075 1200.57 271.354 1203.47 274.259C1205.74 276.523 1206.3 279.983 1204.87 282.848L1200.82 290.945C1199.12 294.346 1196.48 297.192 1193.22 299.148L1192.57 299.54C1186.61 303.115 1182.71 309.253 1181.29 316.056C1179.68 323.783 1177.22 332.227 1174.07 335.373C1171.78 337.66 1169.41 338.231 1167.32 337.986C1163.49 337.533 1162 333.202 1162 329.339V317.206C1162 309.341 1164.05 301.612 1167.96 294.783L1171.04 289.387C1173.02 285.916 1175.9 283.047 1179.36 281.027Z" fill="#727272"/>
<path d="M1249.12 103.181L1242.83 96.9255C1239.1 93.2126 1237 88.1644 1237 82.8988C1237 80.3694 1237.45 77.8482 1238.57 75.5791C1241.1 70.4344 1245.24 64 1249.12 64H1255.78C1265.1 64 1274.05 67.6912 1280.66 74.2671C1283.85 77.4394 1286.41 81.1924 1288.19 85.3239L1292.51 95.362C1293.87 98.5039 1294.33 101.959 1293.84 105.345L1293.67 106.528C1292.46 114.985 1285.21 121.264 1276.67 121.264C1272.58 121.264 1268.63 119.809 1265.52 117.159L1249.12 103.181Z" fill="#727272"/>
<path d="M1309.74 130.306C1318.38 125.294 1333.79 116.71 1343.69 112.191C1348.86 109.829 1354.18 111.878 1357.61 116.419C1359.98 119.563 1361.26 123.394 1361.26 127.332V130.306C1361.26 136.173 1359.35 141.881 1355.82 146.566L1352.17 151.403L1348.58 157.343C1344.92 163.417 1340.72 169.151 1336.03 174.477L1321.86 190.583C1317.82 194.602 1309.74 203.242 1309.74 205.653V241.819V268.944C1309.74 269.312 1310.11 269.685 1310.78 270.056C1324.32 277.59 1340.2 280.464 1351.81 290.727C1358.07 296.261 1363.38 302.778 1367.55 310.023L1373.38 320.181C1379.45 329.222 1373.38 329.222 1373.38 335.25V356.347C1373.38 368.403 1379.45 362.375 1379.45 371.417C1379.45 375.915 1378.7 378.922 1379.44 382.664C1381.81 394.669 1393.82 401.86 1404.75 407.36C1408.44 409.216 1412.13 411.165 1415.82 413.611C1424.91 419.639 1421.88 419.639 1427.94 422.653C1434 425.667 1434 443.75 1434 446.764C1434 449.778 1424.91 461.833 1421.88 467.861L1419.63 472.331C1417.09 477.382 1415.06 482.68 1412.62 487.776C1410.13 492.965 1406.83 498 1403.69 498C1387.86 498 1372.3 493.547 1359.17 484.7C1347.67 476.951 1337.02 469.341 1337.02 467.861C1337.02 448.098 1330.86 429.126 1323.61 410.742C1322.53 408.008 1321.86 405.81 1321.86 404.569C1321.86 398.542 1309.74 392.514 1309.74 386.486C1309.74 380.458 1300.65 374.431 1294.58 371.417C1288.52 368.403 1291.55 353.333 1291.55 344.292C1291.55 340.078 1290.18 334.297 1288.64 329.212C1286.79 323.118 1283.84 317.441 1280.55 311.989L1276.4 305.111L1271.91 298.415C1262.88 284.95 1256.83 269.717 1254.15 253.73C1250.86 234.077 1252.77 213.904 1259.69 195.218L1267.13 175.119C1269.27 169.363 1271.79 163.749 1275.03 158.536C1280.58 149.608 1287.9 139.347 1291.55 139.347C1296.4 139.347 1305.7 133.319 1309.74 130.306Z" fill="#727272"/>
</svg>
