<svg width="719" height="659" viewBox="0 0 719 659" fill="none" xmlns="http://www.w3.org/2000/svg">
<rect width="719" height="659" fill="#F8F8F8"/>
<path d="M386.062 87.0714L393.039 82.8699C397.244 80.3379 402.059 79 406.967 79H414.552H420.354C429.853 79 438.731 84.1169 443.606 92.2704C444.343 93.5037 444.991 94.8114 445.523 96.1462L450.759 109.282L452.732 115.222C453.425 117.31 453.861 119.475 454.029 121.669L456.587 155.039C456.724 156.828 457.079 158.593 457.645 160.296C459.055 164.542 461.769 168.208 465.155 171.132C468.583 174.092 471.879 177.379 471.879 178.93C471.879 181.352 479.925 194.07 483.948 200.127C486.966 205.174 493 215.873 493 218.296V226.042C493 228.935 492.547 231.81 491.579 234.535C489.286 240.989 485.896 249.65 483.948 251.606C481.535 254.028 470.874 262.709 465.845 266.746L460.987 270.403C456.307 273.926 450.608 275.831 444.75 275.831H438.355C436.571 275.831 434.791 276.008 433.042 276.359L426.282 277.716C422.528 278.469 418.977 280.013 415.865 282.244L406.518 288.944C401.932 292.232 396.431 294 390.787 294H387.397L368.037 291.841C362.945 291.273 358.12 289.269 354.125 286.061L335.858 271.395C332.069 268.352 329.171 264.344 327.47 259.791L321.017 242.521L318.801 233.622C318.269 231.488 318 229.296 318 227.096V206.48C318 202.302 318.97 198.18 320.833 194.44L321.017 194.07C322.023 192.052 324.638 187.408 327.052 184.986L342.81 169.171C344.369 167.606 346.112 166.241 348.005 165.101L370.795 151.377C373.788 149.575 376.403 147.209 378.495 144.41L384.379 136.535L388.519 130.303C389.755 128.443 390.414 126.259 390.414 124.026C390.414 120.462 388.739 117.106 385.892 114.962L384.379 113.824C380.58 110.964 378.345 106.485 378.345 101.729V100.726C378.345 96.5089 380.016 92.4633 382.993 89.4758C383.914 88.5517 384.944 87.7442 386.062 87.0714Z" fill="#727272"/>
<path d="M443.592 440.084L440.477 432.238C439.289 429.247 441.493 426 444.712 426C446.152 426 447.507 426.681 448.367 427.836L452.636 433.57C454.82 436.504 456 440.064 456 443.722V450.432C456 452.162 455.138 453.779 453.702 454.743C450.565 456.85 446.299 455.008 445.682 451.28L444.18 442.201C444.06 441.477 443.863 440.767 443.592 440.084Z" fill="#BFBFBF"/>
<path d="M350.711 525.733H363H366.222C368.062 525.733 369.889 525.435 371.634 524.849L376.402 523.248C377.46 522.892 378.569 522.711 379.686 522.711C385.382 522.711 390 527.329 390 533.026V536.331C390 539.262 389.055 542.114 387.305 544.465L382.99 550.26C381.676 552.026 380.031 553.519 378.148 554.657L374.045 557.137C369.039 560.163 362.996 559.17 357.149 558.98C357.098 558.979 357.049 558.978 357 558.978C354.838 558.978 350.89 550.8 348.666 545.497C348.213 544.416 347.674 543.374 347.027 542.397L344.119 538.001C342.781 535.98 342.444 533.457 343.206 531.155C344.277 527.919 347.302 525.733 350.711 525.733Z" fill="#BFBFBF"/>
</svg>
