<svg width="719" height="659" viewBox="0 0 719 659" fill="none" xmlns="http://www.w3.org/2000/svg">
<rect width="719" height="659" fill="#F8F8F8"/>
<path d="M474.771 496.083C478.81 493.056 488.097 487 492.943 487C495.178 487 496.297 489.702 494.716 491.282L489.914 496.083C486.036 499.961 483.857 505.22 483.857 510.704V556.639V557.387C483.857 562.797 482.102 568.062 478.855 572.39L474.771 577.833L473.007 580.479C470.325 584.501 465.811 586.917 460.977 586.917C458.123 586.917 455.333 587.761 452.958 589.344L452.057 589.944C449.095 591.919 445.615 592.972 442.055 592.972H441.055C439.311 592.972 437.573 593.186 435.881 593.609L429.299 595.254C427.317 595.749 425.281 596 423.237 596H423.129C419.249 596 415.422 595.097 411.951 593.362L407.559 591.167C402.082 588.429 397.801 583.776 395.526 578.092L394.789 576.249C393.607 573.295 393 570.143 393 566.962V565.41C393 559.732 394.933 554.224 398.48 549.79L403.646 543.335C404.623 542.114 405.712 540.988 406.899 539.971L426.314 523.333C434.39 517.278 451.754 505.167 456.6 505.167C461.446 505.167 470.733 499.111 474.771 496.083Z" fill="#BFBFBF"/>
<path d="M334.757 370H331.356C328.491 370 325.666 370.667 323.104 371.948L322.388 372.306C321.464 372.768 320.508 373.164 319.527 373.491L312 376L304.418 378.527C297.567 380.811 288 383.778 288 391C288 392.868 286.788 400.917 285.779 407.222C285.339 409.975 286.948 412.649 289.593 413.531C292.156 414.385 293.759 416.929 293.424 419.609L291.672 433.625C291.248 437.016 292.414 440.414 294.831 442.831C296.25 444.25 297.257 446.029 297.744 447.976L300 457L300.458 458.83C302.085 465.342 306.233 470.94 311.989 474.393C315.922 476.753 320.423 478 325.01 478H334.836C343.45 478 351.902 475.659 359.288 471.227C361.758 469.745 364.357 468.491 367.053 467.48L379.392 462.853C384.432 460.963 389.141 458.287 393.345 454.924L417 436L424.393 431.071C430.811 426.793 434.013 419.063 432.5 411.5C432.168 409.841 431.617 408.233 430.86 406.72L426 397L423.594 393.391C421.221 389.832 418.168 386.779 414.609 384.406C412.214 382.809 409.616 381.539 406.885 380.628L402 379L391.297 376.859C388.445 376.289 385.682 375.341 383.08 374.04L382.243 373.621C381.415 373.208 380.56 372.853 379.682 372.561L374.554 370.851C372.919 370.306 371.567 369.134 370.796 367.592C369.695 365.391 367.445 364 364.984 364H349.243C346.526 364 343.921 365.079 342 367C340.079 368.921 337.474 370 334.757 370Z" fill="#727272"/>
<path d="M269.376 257.669L272.587 251.254C276.402 243.634 283.74 236.147 291.415 232.443C295.747 230.353 298.837 229.682 303.494 228.477C305.576 227.938 307.517 227.531 308.603 227.531C311.017 227.531 315.644 229.54 317.655 230.545C320.673 232.554 326.708 237.175 326.708 239.586C326.708 242.6 329.725 251.641 329.725 257.669C329.725 263.697 332.743 269.724 332.743 272.738C332.743 275.752 329.725 290.821 326.708 293.835C323.69 296.848 323.69 299.862 320.673 302.876C317.655 305.89 317.655 313.565 314.638 317.945C310.479 323.982 302.742 326.639 295.936 329.365C294.953 329.759 294.107 330 293.516 330H281.446C276.936 330 274.941 324.634 273.388 320.4C272.212 317.195 270.761 314.192 269.376 313.565C266.359 312.198 266.359 305.89 263.341 302.876C260.324 299.862 263.341 278.766 263.341 275.752C263.341 273.341 267.364 262.692 269.376 257.669Z" fill="#BFBFBF"/>
<path d="M429.302 266.71L435.336 179.31C435.336 177.646 436.686 176.297 438.35 176.297H442.48C443.59 176.297 453.441 173.283 456.459 173.283C459.476 173.283 462.494 173.283 462.494 176.297C462.494 176.619 462.638 177.054 462.898 177.574C468.075 187.947 481.075 191.366 492.668 191.366C500.397 191.366 507.976 194.296 512.907 200.248C515.122 202.922 516.808 205.331 516.808 206.435C516.808 209.448 513.79 227.531 513.79 230.545C513.79 232.956 503.732 247.623 498.703 254.655C493.674 261.687 483.012 276.355 480.598 278.766C477.581 281.779 462.494 293.835 459.476 296.848C457.378 298.944 449.607 302.71 444.55 304.978C443.188 305.589 441.71 305.89 440.218 305.89C435.5 305.89 431.312 302.872 429.819 298.397L427.775 292.274C426.794 289.336 426.512 286.211 426.951 283.146L429.302 266.71Z" fill="#BFBFBF"/>
<path d="M447.406 162.56C447.406 163.332 445.297 159.593 443.369 155.989C442.162 153.733 442.601 150.959 444.411 149.15C446.2 147.363 448.931 146.92 451.194 148.05L452.331 148.618C453.066 148.985 453.738 149.468 454.319 150.049L454.623 150.353C457.562 153.289 458.79 158.007 455.978 161.066C455.16 161.956 454.288 162.56 453.441 162.56C450.424 162.56 447.406 161.228 447.406 162.56Z" fill="#BFBFBF"/>
<path d="M435.336 31.6345C438.046 28.9281 448.056 26.2217 452.255 23.5153C453.067 22.9919 453.984 22.5931 454.95 22.5931C455.916 22.5931 456.842 22.976 457.576 23.6035C459.092 24.898 461.88 27.0873 466.114 30.0004L466.259 30.1005C467.81 31.1668 469.395 32.2569 470.507 33.7717C471.546 35.1874 471.546 36.451 471.546 40.6759C471.546 46.7035 474.563 46.7035 474.563 52.7311C474.563 58.7586 474.563 55.7448 477.581 58.7586C480.598 61.7724 477.581 70.8138 480.598 73.8276C483.616 76.8414 480.598 76.8414 483.616 82.869C486.633 88.8966 489.651 85.8828 492.668 88.8966C495.686 91.9104 498.703 91.9104 501.721 94.9242C504.738 97.938 504.738 94.9242 507.756 91.9104C510.773 88.8966 513.79 91.9104 519.825 88.8966C525.86 85.8828 525.86 85.8828 528.878 85.8828C531.895 85.8828 537.93 82.869 540.948 82.869C543.965 82.869 546.983 88.8966 546.983 91.9104C546.983 94.9242 550 103.966 550 106.979C550 113.204 543.664 117.143 538.907 121.157C538.554 121.455 538.226 121.753 537.93 122.048C535.516 124.459 528.878 125.062 525.86 125.062C521.837 125.062 512.583 124.459 507.756 122.048C501.717 119.033 494.783 125.681 488.328 127.652C484.868 128.708 481.767 129.923 480.598 131.09C477.581 134.103 477.581 134.103 474.563 134.103C473.287 134.103 470.828 134.666 468.348 135.344C464.517 136.392 460.457 136.439 456.689 135.185C454.542 134.47 452.546 133.365 450.801 131.925L447.208 128.962C444.072 126.375 441.315 123.36 439.018 120.005L438.354 119.035L436.789 116.95C431.913 110.457 425.351 103.966 417.232 103.966C416.24 103.966 414.194 102.608 411.849 100.73C405.454 95.6067 403.111 87.0827 404.72 79.048C405.014 77.58 405.442 76.1421 405.998 74.7523L411.197 61.7724L411.601 60.9656C417.233 49.7151 426.171 40.7881 435.074 31.8966L435.336 31.6345Z" fill="#BFBFBF"/>
<path d="M284.973 134.103H292.007C300.861 134.103 309.827 136.345 316.538 142.121C316.969 142.492 317.347 142.836 317.655 143.145C319.258 144.745 320.948 147.319 322.199 149.456C323.244 151.244 324.302 153.028 325.52 154.704C330.214 161.165 333.007 168.978 332.07 176.91C331.611 180.794 330.872 184.192 329.725 185.338C328.055 187.006 327.252 191.656 326.915 195.694C326.675 198.576 325.073 201.223 322.486 202.515C321.298 203.109 320.285 204.002 319.548 205.106L318.215 207.103C315.913 210.551 312.409 213.019 308.387 214.023L307.005 214.368C304.083 215.098 301.037 215.17 298.084 214.58L295.648 214.094C290.323 213.03 285.43 210.414 281.588 206.576L279.42 204.411C278.763 203.755 278.005 203.209 277.174 202.794C274.245 201.331 272.394 198.338 272.394 195.063V187.842C272.394 186.179 272.189 184.522 271.785 182.909L270.321 177.058C269.696 174.562 268.621 172.202 267.147 170.092C264.67 166.547 263.341 162.325 263.341 158V152.186C263.341 150.532 265.235 146.892 267.074 143.796C268.533 141.339 270.601 139.316 272.979 137.732C276.533 135.366 280.704 134.103 284.973 134.103Z" fill="#BFBFBF"/>
<path d="M236.268 46.7119C236.268 44.2983 232.244 31.6271 230.232 25.5932C228.232 17.5971 227.466 9.33567 228.145 1.12134C228.176 0.74938 228.207 0.375505 228.239 0H309.844C310.698 11.4414 311.714 25.1079 311.714 28.6102C311.714 34.6441 308.696 58.7796 305.679 64.8135C302.661 70.8474 293.607 85.9322 293.607 88.9492C293.607 89.5307 292.79 90.2406 291.45 91.0115C280.164 97.5055 266.022 94.7707 254.375 88.9492C244.88 83.2542 238.621 73.4063 237.582 62.3836C236.871 54.842 236.268 48.0334 236.268 46.7119Z" fill="#BFBFBF"/>
</svg>
