<svg width="719" height="659" viewBox="0 0 719 659" fill="none" xmlns="http://www.w3.org/2000/svg">
<rect width="719" height="659" fill="#F8F8F8"/>
<path d="M364.619 498.779L367.753 496.887C371.964 494.344 376.791 493 381.711 493H384.966H388.979C395.845 493 402.205 496.612 405.721 502.509C406.251 503.398 406.709 504.328 407.092 505.291L410.828 514.69L411.944 518.06C412.634 520.144 413.067 522.304 413.235 524.492L414.991 547.468C415.088 548.747 415.342 550.01 415.745 551.229C416.753 554.272 418.695 556.9 421.118 558.998C423.564 561.117 425.914 563.468 425.914 564.577C425.914 566.313 431.661 575.423 434.534 579.761C436.69 583.376 441 591.039 441 592.775V597.096C441 599.98 440.553 602.851 439.57 605.563C437.96 610.007 435.813 615.347 434.534 616.634C432.81 618.369 425.195 624.587 421.603 627.479L420.203 628.536C415.517 632.073 409.807 633.986 403.937 633.986H402.742C400.953 633.986 399.168 634.164 397.414 634.517L394.982 635.006C391.221 635.763 387.665 637.313 384.55 639.552L381.189 641.968C376.638 645.24 371.174 647 365.569 647L353.983 645.704C348.882 645.134 344.049 643.121 340.051 639.902L330.399 632.131C326.617 629.086 323.726 625.077 322.031 620.528L318.155 610.127L316.796 604.657C316.267 602.527 316 600.341 316 598.147V584.604C316 581.418 316.738 578.276 318.155 575.423C318.874 573.977 320.741 570.651 322.466 568.915L333.051 558.262C334.609 556.694 336.354 555.323 338.246 554.181L352.418 545.623C355.41 543.816 358.022 541.446 360.111 538.644L363.414 534.211L366.37 529.748C367.253 528.415 367.724 526.851 367.724 525.252C367.724 522.699 366.526 520.293 364.488 518.754L363.414 517.944C360.699 515.895 359.103 512.691 359.103 509.29V508.553C359.103 505.537 360.296 502.645 362.422 500.506C363.081 499.842 363.818 499.263 364.619 498.779Z" fill="#BFBFBF"/>
<path d="M441.771 166.083C445.81 163.056 455.097 157 459.943 157C462.178 157 463.297 159.702 461.716 161.282L456.914 166.083C453.036 169.961 450.857 175.22 450.857 180.704V226.639V227.387C450.857 232.797 449.102 238.062 445.855 242.39L441.771 247.833L440.007 250.479C437.325 254.501 432.811 256.917 427.977 256.917C425.123 256.917 422.333 257.761 419.958 259.344L419.057 259.944C416.095 261.919 412.615 262.972 409.055 262.972H408.055C406.311 262.972 404.573 263.186 402.881 263.609L396.299 265.254C394.317 265.749 392.281 266 390.237 266H390.129C386.249 266 382.422 265.097 378.951 263.362L374.559 261.167C369.082 258.429 364.801 253.776 362.526 248.092L361.789 246.249C360.607 243.295 360 240.143 360 236.962V235.41C360 229.732 361.933 224.224 365.48 219.79L370.646 213.335C371.623 212.114 372.712 210.988 373.899 209.971L393.314 193.333C401.39 187.278 418.754 175.167 423.6 175.167C428.446 175.167 437.733 169.111 441.771 166.083Z" fill="#727272"/>
<path d="M301.757 40H298.356C295.491 40 292.666 40.667 290.104 41.9482L289.388 42.3058C288.464 42.768 287.508 43.164 286.527 43.4908L279 46L271.418 48.5274C264.567 50.8111 255 53.7784 255 61C255 62.8682 253.788 70.9169 252.779 77.2221C252.339 79.9753 253.948 82.6494 256.593 83.5311C259.156 84.3852 260.759 86.9292 260.424 89.6093L258.672 103.625C258.248 107.016 259.414 110.414 261.831 112.831C263.25 114.25 264.257 116.029 264.744 117.976L267 127L267.458 128.83C269.085 135.342 273.233 140.94 278.989 144.393C282.922 146.753 287.423 148 292.01 148H301.836C310.45 148 318.902 145.659 326.288 141.227C328.758 139.745 331.357 138.491 334.053 137.48L346.392 132.853C351.432 130.963 356.141 128.287 360.345 124.924L384 106L391.393 101.071C397.811 96.7925 401.013 89.0635 399.5 81.4997C399.168 79.8406 398.617 78.2332 397.86 76.7199L393 67L390.594 63.3905C388.221 59.8321 385.168 56.7786 381.609 54.4063C379.214 52.8092 376.616 51.5387 373.885 50.6282L369 49L358.297 46.8595C355.445 46.289 352.682 45.3409 350.08 44.0401L349.243 43.6213C348.415 43.2076 347.56 42.8532 346.682 42.5607L341.554 40.8512C339.919 40.3062 338.567 39.1339 337.796 37.5924C336.695 35.3907 334.445 34 331.984 34H316.243C313.526 34 310.921 35.0791 309 37C307.079 38.9209 304.474 40 301.757 40Z" fill="#BFBFBF"/>
</svg>
