<svg width="271" height="47" viewBox="0 0 271 47" fill="none" xmlns="http://www.w3.org/2000/svg">
<path d="M26.69 27.9375L18.9088 46H13.1275L0.0650024 14.9688H8.47125L16.0025 33.0625L23.815 14.9688H29.5963L37.315 33.0625L44.94 14.9688H53.315L40.2838 46H34.5025L26.69 27.9375ZM53.475 38.625C52.0583 36.1667 51.35 33.4583 51.35 30.5C51.35 27.5417 52.0583 24.8333 53.475 22.375C54.9125 19.8958 56.8917 17.9375 59.4125 16.5C61.9542 15.0417 64.7667 14.3125 67.85 14.3125C70.9333 14.3125 73.7354 15.0417 76.2563 16.5C78.7979 17.9375 80.7771 19.8958 82.1938 22.375C83.6313 24.8333 84.35 27.5417 84.35 30.5C84.35 33.4583 83.6313 36.1667 82.1938 38.625C80.7771 41.0833 78.7979 43.0312 76.2563 44.4688C73.7354 45.9062 70.9333 46.625 67.85 46.625C64.7667 46.625 61.9542 45.9062 59.4125 44.4688C56.8917 43.0312 54.9125 41.0833 53.475 38.625ZM61.9438 24.4688C60.4229 26.0938 59.6625 28.1042 59.6625 30.5C59.6625 32.8958 60.4229 34.9062 61.9438 36.5312C63.4854 38.1562 65.4542 38.9688 67.85 38.9688C70.2458 38.9688 72.2042 38.1562 73.725 36.5312C75.2667 34.9062 76.0375 32.8958 76.0375 30.5C76.0375 28.1042 75.2667 26.0938 73.725 24.4688C72.2042 22.8229 70.2458 22 67.85 22C65.4542 22 63.4854 22.8229 61.9438 24.4688ZM109.01 38.9688L110.291 46C109.083 46.4167 107.354 46.625 105.104 46.625C100.187 46.625 96.6038 45.1354 94.3538 42.1562C92.8121 40.0938 92.0413 37 92.0413 32.875V22H83.4163V14.9688H92.0413V6.3125H100.385V14.9688H110.604V22H100.385V33.8438C100.385 35.6562 100.718 36.9583 101.385 37.75C102.281 38.7708 103.698 39.2812 105.635 39.2812C106.948 39.2812 108.073 39.1771 109.01 38.9688ZM135.483 36.3438L140.201 41.0625C138.722 42.8333 136.847 44.2083 134.576 45.1875C132.305 46.1458 129.941 46.625 127.483 46.625C122.774 46.625 118.889 45.1354 115.826 42.1562C112.764 39.1771 111.233 35.2917 111.233 30.5C111.233 28.3542 111.587 26.3021 112.295 24.3438C113.024 22.3854 114.024 20.6667 115.295 19.1875C116.587 17.6875 118.18 16.5 120.076 15.625C121.993 14.75 124.076 14.3125 126.326 14.3125C129.118 14.3125 131.639 15.0417 133.889 16.5C136.139 17.9375 137.878 19.8646 139.108 22.2812C140.358 24.6979 140.983 27.3333 140.983 30.1875C140.983 31.0625 140.92 31.8542 140.795 32.5625H119.295C119.503 34.7292 120.399 36.5 121.983 37.875C123.566 39.2292 125.462 39.9062 127.67 39.9062C129.274 39.9062 130.753 39.5521 132.108 38.8438C133.483 38.1354 134.608 37.3021 135.483 36.3438ZM119.67 26.4688H132.483C132.358 25.0312 131.712 23.7708 130.545 22.6875C129.378 21.5833 127.972 21.0312 126.326 21.0312C124.639 21.0312 123.149 21.5729 121.858 22.6562C120.587 23.7396 119.858 25.0104 119.67 26.4688ZM164.018 14.5625L163.08 22.3125C162.455 22.1042 161.455 22 160.08 22C158.413 22 156.893 22.4688 155.518 23.4062C154.143 24.3438 153.143 25.3646 152.518 26.4688V46H144.205V14.9688H152.205V18.0938C153.143 16.9271 154.403 16.0104 155.986 15.3438C157.59 14.6562 159.33 14.3125 161.205 14.3125C161.872 14.3125 162.809 14.3958 164.018 14.5625ZM174.928 25.8438V35.125C175.74 36.3125 176.803 37.25 178.115 37.9375C179.428 38.625 180.855 38.9688 182.396 38.9688C184.75 38.9688 186.709 38.1667 188.271 36.5625C189.834 34.9583 190.615 32.9375 190.615 30.5C190.615 28.1875 189.865 26.1979 188.365 24.5312C186.886 22.8438 184.969 22 182.615 22C181.053 22 179.594 22.3438 178.24 23.0312C176.907 23.7188 175.803 24.6562 174.928 25.8438ZM174.615 46H166.615V0.5625H174.928V17.1875C177.386 15.2708 180.303 14.3125 183.678 14.3125C186.448 14.3125 189 15.0208 191.334 16.4375C193.667 17.8542 195.511 19.8021 196.865 22.2812C198.24 24.7604 198.928 27.5 198.928 30.5C198.928 34.7083 197.605 38.3438 194.959 41.4062C193.563 43.0104 191.823 44.2812 189.74 45.2188C187.678 46.1562 185.511 46.625 183.24 46.625C179.928 46.625 177.053 45.5833 174.615 43.5V46ZM210.463 46H202.15V14.9688H210.15V17.4688C212.775 15.3646 215.692 14.3125 218.9 14.3125C221.004 14.3125 222.994 14.7604 224.869 15.6562C226.765 16.5312 228.358 17.75 229.65 19.3125C230.733 20.5833 231.535 22.0729 232.056 23.7812C232.598 25.4896 232.869 27.625 232.869 30.1875V46H224.525V29.5625C224.525 26.8958 223.91 24.9479 222.681 23.7188C221.535 22.5729 219.983 22 218.025 22C216.421 22 214.931 22.4062 213.556 23.2188C212.202 24.0104 211.171 24.8854 210.463 25.8438V46ZM246.31 25.8438V35.125C247.122 36.3125 248.185 37.25 249.497 37.9375C250.81 38.625 252.237 38.9688 253.779 38.9688C256.133 38.9688 258.091 38.1667 259.654 36.5625C261.216 34.9583 261.997 32.9375 261.997 30.5C261.997 28.1875 261.247 26.1979 259.747 24.5312C258.268 22.8438 256.352 22 253.997 22C252.435 22 250.977 22.3438 249.622 23.0312C248.289 23.7188 247.185 24.6562 246.31 25.8438ZM245.997 46H237.997V0.5625H246.31V17.1875C248.768 15.2708 251.685 14.3125 255.06 14.3125C257.831 14.3125 260.383 15.0208 262.716 16.4375C265.05 17.8542 266.893 19.8021 268.247 22.2812C269.622 24.7604 270.31 27.5 270.31 30.5C270.31 34.7083 268.987 38.3438 266.341 41.4062C264.945 43.0104 263.206 44.2812 261.122 45.2188C259.06 46.1562 256.893 46.625 254.622 46.625C251.31 46.625 248.435 45.5833 245.997 43.5V46Z" fill="#FF385C"/>
</svg>
