<svg width="165" height="41" viewBox="0 0 165 41" fill="none" xmlns="http://www.w3.org/2000/svg">
<path d="M27.25 21.9375L19.4688 40H13.6875L0.625 8.96875H9.03125L16.5625 27.0625L24.375 8.96875H30.1562L37.875 27.0625L45.5 8.96875H53.875L40.8438 40H35.0625L27.25 21.9375ZM54.035 32.625C52.6183 30.1667 51.91 27.4583 51.91 24.5C51.91 21.5417 52.6183 18.8333 54.035 16.375C55.4725 13.8958 57.4517 11.9375 59.9725 10.5C62.5142 9.04167 65.3267 8.3125 68.41 8.3125C71.4933 8.3125 74.2954 9.04167 76.8162 10.5C79.3579 11.9375 81.3371 13.8958 82.7537 16.375C84.1912 18.8333 84.91 21.5417 84.91 24.5C84.91 27.4583 84.1912 30.1667 82.7537 32.625C81.3371 35.0833 79.3579 37.0312 76.8162 38.4688C74.2954 39.9062 71.4933 40.625 68.41 40.625C65.3267 40.625 62.5142 39.9062 59.9725 38.4688C57.4517 37.0312 55.4725 35.0833 54.035 32.625ZM62.5037 18.4688C60.9829 20.0938 60.2225 22.1042 60.2225 24.5C60.2225 26.8958 60.9829 28.9062 62.5037 30.5312C64.0454 32.1562 66.0142 32.9688 68.41 32.9688C70.8058 32.9688 72.7642 32.1562 74.285 30.5312C75.8267 28.9062 76.5975 26.8958 76.5975 24.5C76.5975 22.1042 75.8267 20.0938 74.285 18.4688C72.7642 16.8229 70.8058 16 68.41 16C66.0142 16 64.0454 16.8229 62.5037 18.4688ZM109.57 32.9688L110.851 40C109.643 40.4167 107.914 40.625 105.664 40.625C100.747 40.625 97.1637 39.1354 94.9137 36.1562C93.3721 34.0938 92.6012 31 92.6012 26.875V16H83.9762V8.96875H92.6012V0.3125H100.945V8.96875H111.164V16H100.945V27.8438C100.945 29.6562 101.278 30.9583 101.945 31.75C102.841 32.7708 104.257 33.2812 106.195 33.2812C107.507 33.2812 108.632 33.1771 109.57 32.9688ZM136.043 30.3438L140.761 35.0625C139.282 36.8333 137.407 38.2083 135.136 39.1875C132.865 40.1458 130.501 40.625 128.043 40.625C123.334 40.625 119.449 39.1354 116.386 36.1562C113.324 33.1771 111.793 29.2917 111.793 24.5C111.793 22.3542 112.147 20.3021 112.855 18.3438C113.584 16.3854 114.584 14.6667 115.855 13.1875C117.147 11.6875 118.74 10.5 120.636 9.625C122.553 8.75 124.636 8.3125 126.886 8.3125C129.678 8.3125 132.199 9.04167 134.449 10.5C136.699 11.9375 138.438 13.8646 139.668 16.2812C140.918 18.6979 141.543 21.3333 141.543 24.1875C141.543 25.0625 141.48 25.8542 141.355 26.5625H119.855C120.063 28.7292 120.959 30.5 122.543 31.875C124.126 33.2292 126.022 33.9062 128.23 33.9062C129.834 33.9062 131.313 33.5521 132.668 32.8438C134.043 32.1354 135.168 31.3021 136.043 30.3438ZM120.23 20.4688H133.043C132.918 19.0312 132.272 17.7708 131.105 16.6875C129.938 15.5833 128.532 15.0312 126.886 15.0312C125.199 15.0312 123.709 15.5729 122.418 16.6562C121.147 17.7396 120.418 19.0104 120.23 20.4688ZM164.577 8.5625L163.64 16.3125C163.015 16.1042 162.015 16 160.64 16C158.973 16 157.452 16.4688 156.077 17.4062C154.702 18.3438 153.702 19.3646 153.077 20.4688V40H144.765V8.96875H152.765V12.0938C153.702 10.9271 154.963 10.0104 156.546 9.34375C158.15 8.65625 159.89 8.3125 161.765 8.3125C162.432 8.3125 163.369 8.39583 164.577 8.5625Z" fill="#460479"/>
</svg>
